<svg width="20" height="20" viewBox="0 0 20 20" fill="none" xmlns="http://www.w3.org/2000/svg">
<g clip-path="url(#clip0_5_83)">
<path d="M19.394 12.1431C19.2555 12.1431 19.1226 12.1982 19.0247 12.2963C18.9267 12.3945 18.8716 12.5276 18.8716 12.6664V17.3127C18.8712 17.7289 18.7059 18.128 18.4121 18.4223C18.1183 18.7166 17.7199 18.8821 17.3044 18.8826H2.6463C2.2308 18.8821 1.83245 18.7166 1.53864 18.4223C1.24484 18.128 1.07957 17.7289 1.0791 17.3127V3.6763C1.07957 3.26008 1.24484 2.86106 1.53864 2.56675C1.83245 2.27244 2.2308 2.1069 2.6463 2.10643H7.28477C7.42332 2.10643 7.55619 2.05129 7.65416 1.95316C7.75213 1.85502 7.80717 1.72192 7.80717 1.58314C7.80717 1.44435 7.75213 1.31125 7.65416 1.21311C7.55619 1.11498 7.42332 1.05984 7.28477 1.05984H2.6463C1.9538 1.06063 1.28988 1.33655 0.800205 1.82706C0.310529 2.31757 0.0350822 2.98261 0.0342941 3.6763V17.3128C0.0350822 18.0064 0.310529 18.6715 0.800205 19.162C1.28988 19.6525 1.9538 19.9284 2.6463 19.9292H17.3044C17.9969 19.9284 18.6609 19.6525 19.1505 19.162C19.6402 18.6715 19.9157 18.0064 19.9164 17.3128V12.6664C19.9165 12.5977 19.9029 12.5296 19.8767 12.4661C19.8504 12.4027 19.812 12.345 19.7635 12.2964C19.7149 12.2478 19.6574 12.2092 19.594 12.1829C19.5306 12.1566 19.4627 12.1431 19.394 12.1431Z" fill="#14532D"/>
<path d="M15.8306 1.74851L8.20284 9.38928L10.6629 11.8535L18.2907 4.21271L15.8306 1.74851Z" fill="#14532D"/>
<path d="M6.95831 13.1003L9.67689 12.3459L7.71141 10.3771L6.95831 13.1003Z" fill="#14532D"/>
<path d="M18.9707 0.453409C18.7256 0.20842 18.3935 0.0708313 18.0473 0.0708313C17.701 0.0708313 17.3689 0.20842 17.1238 0.453409L16.5697 1.00841L19.0298 3.47264L19.5838 2.91763C19.8284 2.6721 19.9657 2.33942 19.9657 1.99259C19.9657 1.64575 19.8284 1.31308 19.5838 1.06754L18.9707 0.453409Z" fill="#14532D"/>
</g>
<defs>
<clipPath id="clip0_5_83">
<rect width="20" height="20" fill="white"/>
</clipPath>
</defs>
</svg>
