<svg width="20" height="20" viewBox="0 0 20 20" fill="none" xmlns="http://www.w3.org/2000/svg">
<path d="M7.61233 17.3111V14.763C7.61233 14.1126 8.14349 13.5853 8.79871 13.5853H11.1939C11.5085 13.5853 11.8103 13.7093 12.0328 13.9302C12.2552 14.1511 12.3802 14.4507 12.3802 14.763V17.3111C12.3782 17.5815 12.4851 17.8416 12.677 18.0335C12.8689 18.2254 13.1301 18.3333 13.4025 18.3333H15.0365C15.7997 18.3353 16.5323 18.0357 17.0727 17.5007C17.613 16.9656 17.9167 16.2392 17.9167 15.4815V8.22239C17.9167 7.61039 17.6434 7.02987 17.1705 6.63723L11.6117 2.2299C10.6447 1.45714 9.25927 1.48209 8.32117 2.28915L2.88919 6.63723C2.39396 7.0183 2.09797 7.60054 2.08334 8.22239V15.4741C2.08334 17.0532 3.37283 18.3333 4.96349 18.3333H6.56025C7.12603 18.3333 7.58584 17.8802 7.58994 17.3185L7.61233 17.3111Z" fill="#14532D"/>
</svg>
