<svg width="30" height="41" viewBox="0 0 30 41" fill="none" xmlns="http://www.w3.org/2000/svg">
<path d="M27.0398 10.6296H22.0632C21.6295 8.69445 20.863 6.88534 19.8113 5.3148H27.0398C27.637 5.3148 28.2098 5.03482 28.6321 4.53646C29.0544 4.03811 29.2917 3.36219 29.2917 2.6574C29.2917 1.95261 29.0544 1.27669 28.6321 0.778334C28.2098 0.279975 27.637 0 27.0398 0H2.26929C1.67206 0 1.09929 0.279975 0.676982 0.778334C0.254676 1.27669 0.0174258 1.95261 0.0174258 2.6574C0.0174258 3.36219 0.254676 4.03811 0.676982 4.53646C1.09929 5.03482 1.67206 5.3148 2.26929 5.3148H10.1508C11.6376 5.32096 13.0926 5.82326 14.3477 6.7637C15.6029 7.70414 16.607 9.04436 17.2442 10.6296H2.26929C1.67206 10.6296 1.09929 10.9096 0.676982 11.4079C0.254676 11.9063 0.0174258 12.5822 0.0174258 13.287C0.0174258 13.9918 0.254676 14.6677 0.676982 15.1661C1.09929 15.6644 1.67206 15.9444 2.26929 15.9444H18.0323C17.7624 18.1516 16.8294 20.1709 15.4033 21.6343C13.9773 23.0976 12.1532 23.9076 10.2634 23.9166H2.26929C2.16447 23.9042 2.05885 23.9042 1.95403 23.9166C1.8048 23.8892 1.65288 23.8892 1.50366 23.9166C1.35016 23.9783 1.2058 24.068 1.0758 24.1823L0.805578 24.3684C0.682227 24.4998 0.575995 24.652 0.490317 24.8201C0.414897 24.9379 0.347147 25.0623 0.287649 25.1921C0.267605 25.3507 0.267605 25.5119 0.287649 25.6705C0.127178 25.9356 0.033499 26.2488 0.0174258 26.574C0.00689066 26.6977 0.00689066 26.8223 0.0174258 26.946C-0.00580859 27.1221 -0.00580859 27.3014 0.0174258 27.4775C0.0697027 27.6586 0.145684 27.829 0.242612 27.9824C0.242612 27.9824 0.242612 28.195 0.400243 28.3013L13.9114 46.9031C14.2996 47.4387 14.8522 47.7705 15.4477 47.8253C16.0431 47.8801 16.6327 47.6535 17.0866 47.1954C17.5405 46.7373 17.8216 46.0852 17.868 45.3825C17.9145 44.6798 17.7225 43.9841 17.3343 43.4485L7.17836 29.2314H10.1508C13.2495 29.2465 16.2404 27.8904 18.5333 25.4306C20.8262 22.9708 22.2544 19.586 22.5361 15.9444H27.0398C27.637 15.9444 28.2098 15.6644 28.6321 15.1661C29.0544 14.6677 29.2917 13.9918 29.2917 13.287C29.2917 12.5822 29.0544 11.9063 28.6321 11.4079C28.2098 10.9096 27.637 10.6296 27.0398 10.6296Z" fill="#84CC16"/>
</svg>
