<svg width="16" height="14" viewBox="0 0 16 14" fill="none" xmlns="http://www.w3.org/2000/svg">
<g clip-path="url(#clip0_5_28)">
<path d="M11.4439 4.35564H9.33768C9.15413 3.74206 8.82972 3.16844 8.38464 2.67046H11.4439C11.6967 2.67046 11.9391 2.58169 12.1178 2.42367C12.2965 2.26565 12.397 2.05134 12.397 1.82787C12.397 1.6044 12.2965 1.39009 12.1178 1.23207C11.9391 1.07405 11.6967 0.98528 11.4439 0.98528H0.96042C0.707657 0.98528 0.465246 1.07405 0.286516 1.23207C0.107785 1.39009 0.00737501 1.6044 0.00737501 1.82787C0.00737501 2.05134 0.107785 2.26565 0.286516 2.42367C0.465246 2.58169 0.707657 2.67046 0.96042 2.67046H4.29608C4.92531 2.67241 5.54109 2.83168 6.07231 3.12987C6.60352 3.42806 7.0285 3.85301 7.29817 4.35564H0.96042C0.707657 4.35564 0.465246 4.44441 0.286516 4.60243C0.107785 4.76045 0.00737501 4.97476 0.00737501 5.19823C0.00737501 5.4217 0.107785 5.63602 0.286516 5.79403C0.465246 5.95205 0.707657 6.04082 0.96042 6.04082H7.63173C7.51748 6.74068 7.12261 7.38094 6.51907 7.84493C5.91554 8.30892 5.14352 8.56574 4.34373 8.56859H0.96042C0.916056 8.56465 0.871357 8.56465 0.826994 8.56859C0.763838 8.5599 0.69954 8.5599 0.636384 8.56859C0.571422 8.58815 0.510323 8.61658 0.455306 8.65285L0.340941 8.71183C0.288735 8.75351 0.243775 8.80178 0.207514 8.85507C0.175595 8.89242 0.146921 8.93185 0.12174 8.97303C0.113257 9.02331 0.113257 9.07442 0.12174 9.1247C0.0538248 9.20875 0.0141776 9.30806 0.00737501 9.41118C0.0029163 9.4504 0.0029163 9.48992 0.00737501 9.52914C-0.00245834 9.58498 -0.00245834 9.64183 0.00737501 9.69766C0.0294999 9.7551 0.0616572 9.80911 0.102679 9.85775C0.102679 9.85775 0.10268 9.92516 0.169393 9.95886L5.88766 15.857C6.05196 16.0268 6.28584 16.132 6.53785 16.1494C6.78986 16.1668 7.03935 16.0949 7.23145 15.9497C7.42355 15.8044 7.54252 15.5977 7.56218 15.3748C7.58184 15.152 7.50059 14.9315 7.33629 14.7616L3.03806 10.2538H4.29608C5.60752 10.2586 6.87336 9.82857 7.84376 9.04863C8.81416 8.26869 9.41861 7.19548 9.53782 6.04082H11.4439C11.6967 6.04082 11.9391 5.95205 12.1178 5.79403C12.2965 5.63602 12.397 5.4217 12.397 5.19823C12.397 4.97476 12.2965 4.76045 12.1178 4.60243C11.9391 4.44441 11.6967 4.35564 11.4439 4.35564Z" fill="#B88F00" fill-opacity="0.6"/>
</g>
<defs>
<clipPath id="clip0_5_28">
<rect width="15.6593" height="13" fill="white" transform="translate(0 0.98528)"/>
</clipPath>
</defs>
</svg>
